#!OML:ASF H:\ManfredETheater\Project 1\Capture day 1\Session 1\subject.ASF
:FULLY-SPECIFIED
:DEGREES
64
root -4.14698 13.6434 20.6914 -125.226 30.8053 -179.794
lowerback 49.0555 -1.97056 4.53684
upperback 13.1004 3.37421 -0.290461
thorax -5.57067 2.81257 -3.87461
lowerneck 3.29776 -7.94871 -0.879584
upperneck -18.3837 -10.2851 3.79945
head -5.84712 -4.96536 1.90663
rclavicle 4.77083e-014 -1.59028e-014
rhumerus 66.9559 -7.64774 -64.252
rradius 43.3389
rwrist 14.4615
rhand -50.7729 -11.864
rfingers 7.12502
rthumb -23.3307 -40.4702
lclavicle 4.77083e-014 -1.59028e-014
lhumerus 58.9795 11.5494 42.2968
lradius 45.2921
lwrist -3.6081
lhand -43.8056 -2.16004
lfingers 7.12502
lthumb -16.634 27.1472
rfemur -11.2288 0.22535 6.03598
rtibia 16.2013
rfoot 9.77579 -13.5033
rtoes -49.3861
lfemur -122.54 6.2931 -33.5352
ltibia 76.2292
lfoot -7.60942 -8.11862
ltoes -3.492
65
root -3.96625 13.6317 20.187 -124.562 29.9788 -180.523
lowerback 48.6553 -1.64244 4.2802
upperback 12.9168 3.59414 0.0755179
thorax -5.73564 2.85498 -3.45638
lowerneck 3.27451 -8.04162 -0.675029
upperneck -19.0531 -10.379 3.81607
head -6.06302 -4.9971 1.90445
rclavicle -8.90555e-014 -8.98507e-014
rhumerus 66.1631 -8.20505 -65.1534
rradius 42.8827
rwrist 14.5585
rhand -53.4822 -14.8327
rfingers 7.12502
rthumb -25.9276 -43.0846
lclavicle -8.90555e-014 -8.98507e-014
lhumerus 63.4498 12.0735 45.6013
lradius 41.9149
lwrist -5.96783
lhand -43.164 -0.389938
lfingers 7.12502
lthumb -16.0163 28.968
rfemur -10.7905 1.57751 6.31099
rtibia 15.2752
rfoot 14.3963 -12.1866
rtoes -49.0124
lfemur -122.486 5.2707 -34.0739
ltibia 78.3231
lfoot -9.97247 -8.05704
ltoes -1.7021
66
root -3.7839 13.6263 19.6879 -123.727 29.1459 -181.188
lowerback 47.189 -1.34654 4.06075
upperback 13.6374 3.73483 0.515682
thorax -5.92305 2.85802 -3.15208
lowerneck 3.2317 -8.07443 -0.5333
upperneck -19.7532 -10.3942 3.78642
head -6.28749 -4.97802 1.89322
rclavicle -3.49861e-014 3.1408e-014
rhumerus 64.8636 -8.63105 -66.0545
rradius 42.865
rwrist 14.5375
rhand -56.1291 -18.2533
rfingers 7.12502
rthumb -28.4596 -46.1087
lclavicle -3.49861e-014 3.1408e-014
lhumerus 67.7996 12.2289 49.4168
lradius 38.4894
lwrist -8.38758
lhand -42.4405 1.56935
lfingers 7.12502
lthumb -15.3195 30.9819
rfemur -11.7587 2.26991 6.83498
rtibia 16.5124
rfoot 17.2846 -8.46401
rtoes -49.0303
lfemur -122.356 4.35213 -34.6852
ltibia 80.0984
lfoot -12.4063 -8.26636
ltoes -0.305076
67
root -3.60122 13.6262 19.1958 -122.762 28.3669 -181.721
lowerback 46.6062 -1.11289 3.83758
upperback 13.377 3.81167 0.769153
thorax -6.10143 2.8368 -2.80145
lowerneck 3.15746 -8.02284 -0.544791
upperneck -20.4903 -10.2988 3.73288
head -6.51465 -4.88598 1.89071
rclavicle 6.83819e-014 1.06549e-013
rhumerus 63.1098 -8.8472 -66.9389
rradius 43.2597
rwrist 14.3631
rhand -58.5075 -21.8483
rfingers 7.12502
rthumb -30.7299 -49.3009
lclavicle 6.83819e-014 1.06549e-013
lhumerus 71.7372 12.0452 53.4557
lradius 35.2034
lwrist -10.5363
lhand -41.9341 3.41113
lfingers 7.12502
lthumb -14.8316 32.8603
rfemur -13.8454 2.28761 7.60923
rtibia 19.4776
rfoot 18.2333 -3.26879
rtoes -48.9054
lfemur -122.162 3.64031 -35.3259
ltibia 81.6478
lfoot -14.8099 -8.73604
ltoes 0.982468
68
root -3.42225 13.6306 18.709 -121.736 27.5885 -182.13
lowerback 46.0057 -1.00018 3.67065
upperback 13.1141 3.76401 0.972097
thorax -6.27505 2.76429 -2.48094
lowerneck 2.9894 -7.87637 -0.768374
upperneck -21.1971 -10.0751 3.69102
head -6.70711 -4.71139 1.91043
rclavicle -3.18055e-015 2.94201e-014
rhumerus 60.9538 -8.80226 -67.806
rradius 43.977
rwrist 14.0309
rhand -60.4493 -25.1589
rfingers 7.12502
rthumb -32.5794 -52.2469
lclavicle -3.18055e-015 2.94201e-014
lhumerus 74.9926 11.5898 57.2529
lradius 32.2179
lwrist -12.0644
lhand -42.0529 5.20846
lfingers 7.12502
lthumb -14.9461 34.6492
rfemur -16.6116 1.60833 8.68474
rtibia 23.5099
rfoot 17.9389 2.14055
rtoes -48.1145
lfemur -121.866 3.09377 -35.8626
ltibia 83.0246
lfoot -17.0899 -9.31906
ltoes 2.15605
69
root -3.2483 13.6416 18.2272 -120.731 26.8205 -182.379
lowerback 45.4968 -1.01883 3.56512
upperback 12.8613 3.59569 1.12387
thorax -6.4546 2.64424 -2.19761
lowerneck 2.69779 -7.6315 -1.22733
upperneck -21.8539 -9.71249 3.68453
head -6.85176 -4.44871 1.96147
rclavicle -1.03368e-013 -1.2921e-013
rhumerus 58.5438 -8.46761 -68.5608
rradius 44.79
rwrist 13.6021
rhand -61.8796 -27.6832
rfingers 7.12502
rthumb -33.9393 -54.4804
lclavicle -1.03368e-013 -1.2921e-013
lhumerus 77.3735 10.9821 60.4211
lradius 29.6556
lwrist -12.8292
lhand -43.0231 6.86065
lfingers 7.12502
lthumb -15.8806 36.2295
rfemur -19.7136 0.43613 10.0697
rtibia 28.1495
rfoot 17.298 6.8929
rtoes -46.3289
lfemur -121.404 2.74854 -36.2014
ltibia 84.2578
lfoot -19.2086 -9.92719
ltoes 3.1148
70
root -3.08048 13.6623 17.7491 -119.878 26.123 -182.505
lowerback 45.2052 -1.15999 3.49156
upperback 12.6283 3.31792 1.21882
thorax -6.66242 2.48279 -1.9496
lowerneck 2.26576 -7.30674 -1.9017
upperneck -22.4381 -9.23138 3.71238
head -6.94105 -4.10924 2.0421
rclavicle 4.13472e-014 -6.36111e-015
rhumerus 56.0368 -7.85795 -69.0853
rradius 45.4403
rwrist 13.1697
rhand -62.8603 -29.2486
rfingers 7.12502
rthumb -34.8704 -55.8348
lclavicle 4.13472e-014 -6.36111e-015
lhumerus 78.7736 10.3285 62.6761
lradius 27.5719
lwrist -12.855
lhand -44.8948 8.24982
lfingers 7.12502
lthumb -17.6824 37.4658
rfemur -22.8816 -1.0015 11.6524
rtibia 33.1258
rfoot 16.6839 10.5087
rtoes -43.7835
lfemur -120.652 2.59458 -36.317
ltibia 85.3571
lfoot -21.1715 -10.469
ltoes 3.8235
71
root -2.91956 13.6953 17.273 -119.256 25.5089 -182.531
lowerback 45.2021 -1.4026 3.47761
upperback 12.4197 2.978 1.27228
thorax -6.91191 2.30212 -1.75402
lowerneck 1.70367 -6.93984 -2.7247
upperneck -22.9523 -8.68054 3.74977
head -6.98386 -3.71927 2.13981
rclavicle -1.59028e-015 1.74931e-014
rhumerus 53.5802 -7.04158 -69.2446
rradius 45.6802
rwrist 12.8645
rhand -63.4916 -30.1171
rfingers 7.12502
rthumb -35.4691 -56.5623
lclavicle -1.59028e-015 1.74931e-014
lhumerus 79.1999 9.64096 64.0914
lradius 26.044
lwrist -12.5518
lhand -47.3792 9.38221
lfingers 7.12502
lthumb -20.0718 38.3654
rfemur -25.9596 -2.54269 13.3484
rtibia 38.2918
rfoot 15.8477 12.7473
rtoes -41.2861
lfemur -119.53 2.61426 -36.1995
ltibia 86.3208
lfoot -22.9556 -10.879
ltoes 4.15633
72
root -2.76555 13.7431 16.7974 -118.93 25.0157 -182.492
lowerback 45.5132 -1.6922 3.50801
upperback 12.2431 2.64224 1.30372
thorax -7.20148 2.13228 -1.60808
lowerneck 1.0488 -6.57746 -3.60466
upperneck -23.4028 -8.1236 3.76981
head -6.99453 -3.31551 2.23864
rclavicle -7.79236e-014 -7.11649e-014
rhumerus 51.2942 -6.11413 -68.9594
rradius 45.3308
rwrist 12.8066
rhand -63.8417 -30.779
rfingers 7.12502
rthumb -35.8009 -57.1442
lclavicle -7.79236e-014 -7.11649e-014
lhumerus 78.7058 8.85649 64.7683
lradius 25.1358
lwrist -12.2118
lhand -50.1667 10.5004
lfingers 7.12502
lthumb -22.7491 39.1792
rfemur -28.8609 -4.02064 15.0211
rtibia 43.5637
rfoot 14.4729 13.5719
rtoes -39.5106
lfemur -117.973 2.77666 -35.8768
ltibia 87.1344
lfoot -24.5381 -11.114
ltoes 3.91864
73
root -2.61752 13.8081 16.3211 -118.926 24.7175 -182.443
lowerback 46.123 -1.95556 3.5159
upperback 12.1033 2.36974 1.31913
thorax -7.52118 1.99907 -1.49439
lowerneck 0.361247 -6.25926 -4.40348
upperneck -23.8288 -7.6195 3.72515
head -7.00272 -2.93402 2.30809
rclavicle 8.26944e-014 4.17448e-014
rhumerus 49.2592 -5.14849 -68.1618
rradius 44.3127
rwrist 12.8964
rhand -63.9923 -31.8923
rfingers 7.12502
rthumb -35.9437 -58.2226
lclavicle 8.26944e-014 4.17448e-014
lhumerus 77.4539 7.88888 64.9361
lradius 24.7979
lwrist -12.0857
lhand -52.8714 11.7537
lfingers 7.12502
lthumb -25.3426 40.0898
rfemur -31.5734 -5.34104 16.4913
rtibia 48.8824
rfoot 12.5637 13.0225
rtoes -38.3015
lfemur -115.949 3.03842 -35.4315
ltibia 87.7805
lfoot -25.8947 -11.1709
ltoes 3.05147
74
root -2.4745 13.8899 15.8444 -119.177 24.6249 -182.396
lowerback 46.9078 -2.14186 3.48725
upperback 12.0081 2.20373 1.32678
thorax -7.82685 1.92113 -1.41361
lowerneck -0.312687 -6.01209 -5.00247
upperneck -24.2664 -7.21038 3.59267
head -7.03034 -2.60363 2.32493
rclavicle 2.06736e-014 -9.14409e-015
rhumerus 47.5525 -4.22661 -66.9113
rradius 42.618
rwrist 13.0564
rhand -63.9661 -33.1754
rfingers 7.12502
rthumb -35.9188 -59.5118
lclavicle 2.06736e-014 -9.14409e-015
lhumerus 75.6682 6.67938 64.8568
lradius 24.909
lwrist -12.2973
lhand -55.1699 13.39
lfingers 7.12502
lthumb -27.5426 41.3951
rfemur -34.2018 -6.45219 17.6899
rtibia 54.2004
rfoot 10.2509 11.3906
rtoes -37.5702
lfemur -113.541 3.34186 -34.9001
ltibia 88.2411
lfoot -26.985 -11.0776
ltoes 1.47747
75
root -2.33507 13.9852 15.3695 -119.577 24.7649 -182.37
lowerback 48.64 -2.23683 3.435
upperback 10.9772 2.16276 1.21174
thorax -8.03988 1.9058 -1.34084
lowerneck -0.89644 -5.84031 -5.32843
upperneck -24.7619 -6.9102 3.3829
head -7.10456 -2.33926 2.28307
rclavicle -5.48646e-014 -7.71285e-014
rhumerus 46.1036 -3.38929 -65.3473
rradius 40.4146
rwrist 13.1853
rhand -63.7301 -34.2083
rfingers 7.12502
rthumb -35.6952 -60.5991
lclavicle -5.48646e-014 -7.71285e-014
lhumerus 73.5848 5.22602 64.7315
lradius 25.2846
lwrist -12.8251
lhand -56.8141 15.4191
lfingers 7.12502
lthumb -29.114 43.1632
rfemur -36.9008 -7.30738 18.5633
rtibia 59.4813
rfoot 7.75878 9.05892
rtoes -37.2403
lfemur -110.891 3.6332 -34.3467
ltibia 88.5135
lfoot -27.7684 -10.8794
ltoes -0.792192
